<svg width="99" height="32" viewBox="0 0 99 32" fill="none" xmlns="http://www.w3.org/2000/svg">
	<path d="M16.4338 5.96094H21.1668L13.9585 18.6047V24.9131H9.49743V18.6047L2.28906 5.96094H7.0221L11.7279 14.5706L16.4338 5.96094Z" fill="#303030" />
	<path d="M26.9121 25.2109C24.8448 25.2109 23.1311 24.5702 21.771 23.2886C20.4109 21.9891 19.7309 20.3014 19.7309 18.2257C19.7309 16.168 20.4019 14.4894 21.7438 13.1898C23.1039 11.8903 24.7813 11.2405 26.776 11.2405C28.7345 11.2405 30.3576 11.8542 31.6451 13.0815C32.9326 14.2909 33.5764 15.8883 33.5764 17.8737C33.5764 18.2347 33.5492 18.686 33.4948 19.2275H24.1103C24.2554 20.0758 24.5727 20.7166 25.0624 21.1498C25.5701 21.5829 26.1776 21.7995 26.8849 21.7995C27.4833 21.7995 28.0001 21.6551 28.4353 21.3664C28.8706 21.0595 29.1426 20.6534 29.2514 20.148L33.0324 21.1498C32.6697 22.4854 31.9262 23.4962 30.8019 24.1821C29.6957 24.868 28.3991 25.2109 26.9121 25.2109ZM24.2463 16.52H29.4146C29.3058 16.0327 29.0156 15.6085 28.5441 15.2475C28.0908 14.8685 27.5105 14.6789 26.8033 14.6789C25.5339 14.6789 24.6815 15.2926 24.2463 16.52Z" fill="#303030" />
	<path d="M48.039 21.4476C48.1841 21.4476 48.3927 21.4025 48.6647 21.3122V24.9673C48.2838 25.1117 47.7489 25.1839 47.0598 25.1839C45.3189 25.1839 44.1402 24.6965 43.5236 23.7218C42.5806 24.6965 41.2296 25.1839 39.4706 25.1839C38.0924 25.1839 36.9681 24.8229 36.0976 24.1009C35.2453 23.3789 34.8192 22.3862 34.8192 21.1227C34.8192 19.9495 35.209 19.0018 35.9888 18.2799C36.7686 17.5579 37.8204 17.1337 39.1442 17.0074L43.034 16.6554V16.3846C43.034 15.8612 42.8526 15.4461 42.49 15.1392C42.1273 14.8143 41.6648 14.6519 41.1027 14.6519C40.0872 14.6519 39.4797 15.1392 39.2802 16.1139L35.3904 15.5724C35.6261 14.0562 36.2971 12.9552 37.4033 12.2693C38.5276 11.5834 39.8696 11.2405 41.4291 11.2405C43.2788 11.2405 44.7295 11.6827 45.7813 12.5671C46.8512 13.4335 47.3862 14.6699 47.3862 16.2763V20.7166C47.3862 21.2039 47.6038 21.4476 48.039 21.4476ZM43.034 19.6607V19.3628L40.4771 19.6607C40.0418 19.7148 39.6973 19.8592 39.4434 20.0939C39.1895 20.3104 39.0626 20.5722 39.0626 20.879C39.0626 21.24 39.2167 21.5198 39.525 21.7183C39.8514 21.9169 40.2594 22.0071 40.7491 21.9891C41.4019 21.953 41.9459 21.7364 42.3811 21.3393C42.8164 20.9422 43.034 20.3826 43.034 19.6607Z" fill="#303030" />
	<path d="M58.4519 11.2405C59.9751 11.2405 61.2173 11.6827 62.1784 12.5671C63.1577 13.4516 63.6473 14.688 63.6473 16.2763V24.9131H59.2951V17.603C59.2951 16.7908 59.0956 16.1861 58.6967 15.789C58.2977 15.3739 57.7537 15.1663 57.0646 15.1663C56.3755 15.1663 55.8224 15.3829 55.4053 15.8161C55.0063 16.2493 54.8069 16.881 54.8069 17.7113V24.9131H50.4546V5.96094H54.8069V12.6213C55.6954 11.7007 56.9104 11.2405 58.4519 11.2405Z" fill="#303030" />
	<path d="M74.9393 11.5112H79.2915V24.9131H74.9393V23.8031C74.0507 24.7236 72.8357 25.1839 71.2943 25.1839C69.8436 25.1839 68.6104 24.7236 67.5949 23.8031C66.5975 22.8645 66.0988 21.5559 66.0988 19.8773V11.5112H70.4511V18.9296C70.4511 19.7058 70.6506 20.2924 71.0495 20.6895C71.4485 21.0685 71.9925 21.2581 72.6816 21.2581C73.3707 21.2581 73.9147 21.0415 74.3137 20.6083C74.7308 20.1751 74.9393 19.5433 74.9393 18.713V11.5112Z" fill="#303030" />
	<path d="M90.0686 11.2405C91.9183 11.2405 93.4869 11.8993 94.7744 13.2169C96.062 14.5165 96.7057 16.1861 96.7057 18.2257C96.7057 20.2292 96.071 21.8898 94.8016 23.2074C93.5322 24.525 91.9636 25.1839 90.0958 25.1839C88.5 25.1839 87.1943 24.6965 86.1788 23.7218V24.9131H81.8266V5.96094H86.1788V12.6754C87.1762 11.7188 88.4728 11.2405 90.0686 11.2405ZM89.1981 21.4205C90.0323 21.4205 90.7395 21.1317 91.3198 20.5541C91.9001 19.9585 92.1903 19.1823 92.1903 18.2257C92.1903 17.251 91.9001 16.4749 91.3198 15.8973C90.7577 15.3017 90.0505 15.0038 89.1981 15.0038C88.3277 15.0038 87.6023 15.3017 87.022 15.8973C86.4599 16.4749 86.1788 17.251 86.1788 18.2257C86.1788 19.1823 86.4599 19.9585 87.022 20.5541C87.6023 21.1317 88.3277 21.4205 89.1981 21.4205Z" fill="#303030" />
</svg>
