<svg width="3995" height="2435" viewBox="0 0 3995 2435" fill="none" xmlns="http://www.w3.org/2000/svg">
	<rect width="3995" height="2435" fill="#F0E7FF" />
	<g clip-path="url(#clip0_8018_64005)">
		<path fill-rule="evenodd" clip-rule="evenodd" d="M1916.72 930.695C1931.79 920.749 1953.66 912.508 1975.05 908.715C1987.07 906.585 2019.13 907.24 2029.73 909.833C2063.05 917.981 2089.89 934.6 2109.78 959.39C2116.67 967.974 2129.89 991.425 2129.89 995.058C2129.89 996.105 2131.81 996.943 2135.36 997.446C2144.51 998.745 2157.79 1003.62 2163.52 1007.79C2170.73 1013.03 2177.49 1021.77 2180.64 1029.91C2184.24 1039.2 2184.25 1057.64 2180.67 1067.62C2173.47 1087.72 2154.35 1101.59 2133.86 1101.59C2131.68 1101.59 2129.89 1102.04 2129.89 1102.58C2129.89 1103.13 2126.25 1109.04 2121.8 1115.72C2113.18 1128.65 2102.43 1139.72 2090.84 1147.59C2086.99 1150.2 2083.84 1152.87 2083.84 1153.53C2083.84 1154.18 2087.47 1166.49 2091.9 1180.88C2096.33 1195.27 2099.96 1207.63 2099.96 1208.35C2099.96 1209.07 2102.94 1210.52 2106.58 1211.57C2128.48 1217.87 2129.89 1218.39 2129.87 1220.13C2129.86 1221.11 2129.08 1227.61 2128.15 1234.58C2127.22 1241.55 2126.45 1247.56 2126.45 1247.95C2126.44 1248.34 2130.74 1252.22 2136 1256.59C2152.46 1270.23 2160.33 1280.51 2163.69 1292.73C2170.37 1317.06 2163.12 1337.49 2142.88 1351.32L2139.18 1353.86L2142.16 1360.42C2150.69 1379.2 2155.23 1398.86 2155.2 1416.89C2155.18 1435.44 2150.8 1450.47 2141.43 1464.22C2137.19 1470.45 2126.23 1481.58 2120.94 1485.03C2118.43 1486.67 2118.37 1487.02 2119.65 1493.31C2123.59 1512.77 2109.34 1527.61 2086.72 1527.58C2059.37 1527.55 2035.4 1510.56 2026.27 1484.72L2024.14 1478.68L2016.86 1479.26C2006.3 1480.09 1987.8 1479.96 1978.48 1478.99L1970.4 1478.14L1968.28 1484.17C1963.77 1497.02 1954.94 1508.55 1943.65 1516.32C1928.07 1527.04 1904.22 1530.56 1890.87 1524.1C1879.48 1518.58 1872.77 1506.13 1875.29 1495.2C1877.07 1487.49 1876.98 1486.44 1874.5 1485.65C1871.01 1484.54 1856.26 1469.51 1851.76 1462.47C1849.45 1458.86 1845.96 1451.7 1844 1446.57C1840.54 1437.48 1840.44 1436.7 1840.4 1417.66C1840.35 1395.19 1842.26 1385.49 1850.35 1366.99C1852.85 1361.29 1855.11 1356.11 1855.37 1355.48C1855.63 1354.85 1853.72 1353.03 1851.12 1351.45C1844.92 1347.67 1836.85 1337.74 1832.41 1328.42C1829.1 1321.46 1828.85 1320.08 1828.94 1308.85C1829.01 1299.15 1829.55 1295.39 1831.68 1289.85C1836.54 1277.18 1846.45 1265.35 1861.97 1253.66C1868.03 1249.1 1868.56 1248.35 1868.02 1245.08C1866.82 1237.66 1865.11 1223.37 1865.11 1220.68C1865.11 1219.14 1865.76 1217.88 1866.56 1217.88C1867.36 1217.88 1872.08 1216.59 1877.06 1215.01C1882.03 1213.44 1887.99 1211.63 1890.31 1211.01C1894.46 1209.89 1894.57 1209.7 1898.1 1198.05C1907.61 1166.6 1911.16 1154.53 1911.16 1153.63C1911.16 1153.08 1908.44 1150.9 1905.11 1148.77C1892.42 1140.65 1875.01 1121.49 1866.78 1106.59C1863.66 1100.96 1863.3 1100.69 1859.65 1101.28C1853.98 1102.2 1841.83 1098.48 1834.02 1093.44C1826.1 1088.32 1818.2 1078.31 1814.28 1068.46C1812.11 1062.98 1811.66 1059.63 1811.62 1048.57C1811.58 1035.47 1811.64 1035.13 1815.9 1026.51C1823.5 1011.13 1836.44 1001.74 1854.09 998.786C1859.59 997.865 1863.55 996.6 1864.08 995.597C1864.55 994.682 1866.47 990.52 1868.33 986.35C1870.19 982.179 1874.21 974.925 1877.25 970.23C1884.23 959.456 1905.65 937.996 1916.72 930.695ZM1902.55 970.256C1918.12 950.839 1951.18 933.162 1979.69 929.008C1990.72 927.402 2007.93 927.591 2018.5 929.434C2048.1 934.596 2077.41 952.16 2093.94 974.641C2099.76 982.555 2109.17 998.899 2109.17 1001.09C2109.17 1017.95 2112.02 1000.73 2072.5 1000.95C2051.6 1001.06 2040.04 1002.82 2026.48 1007.98C2015.79 1012.04 2006.28 1014.03 1997.45 1014.06C1989.31 1014.09 1978.28 1011.67 1974.13 1008.94C1972.7 1008.01 1965.33 1005.85 1957.75 1004.14C1945.87 1001.46 1941.26 1001.02 1924.4 1000.94C1913.63 1000.88 1900.22 1001.28 1894.6 1001.82L1884.37 1002.8L1885.16 999.519C1886.35 994.54 1895.74 978.747 1902.55 970.256ZM1887.68 1035.92C1887.5 1019.96 1889.71 1017.3 1904.83 1015.28C1914.71 1013.95 1941.47 1014.87 1950.49 1016.85C1960.88 1019.12 1965.12 1021.52 1967.08 1026.21C1972.03 1038.05 1965.02 1062.34 1953.35 1073.79C1946.86 1080.16 1938.21 1083.17 1926.36 1083.17C1909.87 1083.17 1900.9 1078.67 1894.71 1067.29C1890.19 1059 1887.82 1048.39 1887.68 1035.92ZM1853.25 1016.9C1858.56 1015 1859.35 1014.93 1859.35 1016.31C1859.35 1094.3 1868.56 1086.62 1845.78 1051.41C1838.05 1034.96 1831.16 1024.78 1853.25 1016.9ZM2047.41 1017.07C2056.59 1015.95 2065.13 1015.25 2074.68 1015.47C2092.77 1015.89 2096.73 1016.31 2100.59 1018.19C2107.35 1021.49 2108.61 1026.18 2106.96 1041.89C2105.47 1056.12 2102.57 1065.44 2097.78 1071.5C2090.87 1080.23 2075.57 1084.74 2061.63 1082.16C2047.91 1079.62 2040 1073.47 2033.36 1060.2C2028.4 1050.29 2025.55 1037.35 2026.83 1030.54C2028.25 1022.93 2034.85 1018.61 2047.41 1017.07ZM2138.35 1018.34C2134.65 1016.14 2134.15 1002.35 2155.19 1026.31C2159.48 1031.2 2163.34 1039.06 2162.51 1041.21C2162.21 1042.01 2160.48 1043.27 2158.67 1044.02C2156.87 1044.77 2154.45 1046.42 2153.3 1047.69C2152.15 1048.95 2150.26 1050.5 2149.1 1051.12C2147.29 1052.09 2147.14 1051.95 2148.04 1050.15C2149.69 1046.89 2148.85 1034.58 2146.7 1030.42C2144.69 1026.55 2144.09 1025.79 2141.92 1022.42C2140.81 1020.69 2139.2 1018.85 2138.35 1018.34ZM2072.91 1019.93C2077.22 1021.97 2081.61 1025.05 2083.24 1027.19C2097.61 1046.03 2086.4 1071 2063.63 1070.84C2053.76 1070.78 2045.46 1065.94 2039.96 1057.05C2036.16 1050.89 2036.54 1040.18 2040.88 1031.52C2046.53 1020.22 2061.27 1014.42 2072.91 1019.93ZM1909.72 1056.76C1903.02 1043.54 1907.9 1027.92 1920.99 1020.73C1937.88 1011.44 1957.73 1023.6 1959.28 1044.2C1959.69 1049.69 1959.27 1051.63 1956.6 1056.53C1951.26 1066.35 1941.39 1071.27 1929.23 1070.16C1920.04 1069.33 1913.98 1065.17 1909.72 1056.76ZM1922.47 1044.42C1919.83 1042.02 1919.75 1036.25 1922.32 1033.4C1925.07 1030.37 1930.49 1031.14 1933.33 1034.96C1938.52 1041.94 1928.95 1050.28 1922.47 1044.42ZM2054.49 1046.32C2048.28 1046.32 2044.72 1038.09 2048.91 1033.46C2053.02 1028.92 2061.97 1033.1 2061.97 1039.57C2061.97 1042.63 2057.87 1046.32 2054.49 1046.32ZM1980.71 1052.79C1985.48 1040.31 1986.01 1039.55 1991.25 1037.64C1993.83 1036.7 1997.51 1036.27 1999.8 1036.64C2003.64 1037.26 2010.16 1042.12 2010.16 1044.35C2010.16 1044.93 2013.23 1051.81 2016.98 1059.65C2026.9 1080.39 2036.77 1090.29 2051.2 1093.98C2066.6 1097.91 2078.74 1097.45 2092.13 1092.42C2099.45 1089.67 2116.9 1077.64 2116.91 1068.58C2116.92 1064.66 2122.31 1039.7 2123.38 1038.63C2124.47 1037.54 2124.27 1048.67 2122.99 1060.88C2121.58 1074.18 2116.45 1088.63 2109.2 1099.62C2102.88 1109.22 2090.15 1122.37 2081.27 1128.49C2074.91 1132.87 2055.4 1141.82 2051.88 1141.98C2050.78 1142.03 2048.07 1142.81 2045.85 1143.72L2041.82 1145.37L2046.43 1144.78C2048.96 1144.46 2052.9 1143.88 2055.18 1143.5L2059.33 1142.8L2061.93 1154.05C2064.22 1163.98 2075.77 1200.61 2078.06 1205.22C2078.53 1206.17 2079.27 1208.4 2079.69 1210.17C2080.45 1213.33 2080.2 1213.51 2065.16 1220.68C2056.74 1224.69 2044.16 1230.58 2037.2 1233.77C2030.25 1236.96 2019.14 1242.17 2012.53 1245.36C2005.92 1248.54 2000.08 1250.87 1999.55 1250.55C1999.03 1250.22 1998.67 1250.38 1998.76 1250.9C1999.22 1253.54 1997.8 1253.17 1987.43 1247.98C1981.25 1244.88 1962.47 1236.02 1945.69 1228.29C1928.92 1220.55 1914.76 1213.81 1914.23 1213.31C1913.7 1212.81 1913.83 1211.43 1914.51 1210.25C1916.02 1207.63 1931.33 1160.3 1933.93 1150.2C1935.22 1145.19 1936.26 1143.15 1937.3 1143.55C1938.14 1143.87 1942.31 1144.42 1946.57 1144.77L1954.33 1145.41L1945.99 1143.13C1926.79 1137.87 1910.85 1128.89 1899.58 1116.99C1880.41 1096.71 1870.93 1074.26 1870.88 1048.98C1870.86 1037.5 1872.41 1033.87 1873.61 1042.6C1878.55 1078.71 1895.07 1095.83 1924.94 1095.83C1953.21 1095.83 1968.91 1083.72 1980.71 1052.79ZM1973.17 1105.88C1973 1094.24 1980.14 1086.41 1992.78 1084.38C1999.26 1083.34 2003.33 1083.93 2010.48 1086.93C2016.92 1089.63 2020.56 1093.56 2022.74 1100.17C2025.83 1109.54 2019.9 1120.1 2007.57 1127.17C2005.2 1128.53 2003.26 1130.1 2003.26 1130.64C2003.26 1131.19 2004.53 1132.9 2006.08 1134.46C2010.61 1138.98 2021.66 1137.75 2028.55 1131.96C2030.47 1130.34 2032.04 1129.48 2032.04 1130.03C2032.04 1132.08 2022.09 1140.67 2016.5 1143.46C2009.92 1146.74 1996.66 1149.38 1991.73 1148.39C1986.17 1147.28 1973.67 1140.66 1970.23 1137L1966.99 1133.55L1971.02 1135.6C1976.49 1138.39 1984.11 1138.28 1988.05 1135.35C1992.7 1131.88 1992.66 1128.77 1987.93 1126.53C1983.35 1124.35 1977.3 1118.5 1974.91 1113.94C1973.99 1112.19 1973.21 1108.56 1973.17 1105.88ZM1979.59 1098.21C1980.67 1097.02 1983.2 1095.23 1985.21 1094.24C1990.84 1091.46 1995.78 1091.86 1998.5 1095.33C1999.78 1096.96 2000.58 1098.91 2000.29 1099.68C1999.99 1100.45 1996.86 1102.81 1993.33 1104.92C1986.13 1109.23 1983.2 1108.89 1979.56 1103.34C1977.74 1100.56 1977.75 1100.25 1979.59 1098.21ZM1886.46 1224.74C1888.33 1224.72 1891.65 1223.75 1893.83 1222.58C1897.64 1220.55 1897.99 1220.55 1902.47 1222.5C1913.76 1227.41 1928.56 1234.06 1937.06 1238.03C1942.13 1240.4 1953.78 1245.68 1962.96 1249.78C1972.14 1253.88 1983.59 1259.18 1988.4 1261.56L1997.14 1265.88L2018.33 1256.14C2029.98 1250.78 2052.13 1240.51 2067.55 1233.32C2094.84 1220.59 2095.67 1220.29 2098.88 1221.95C2100.7 1222.89 2104.13 1224.07 2106.5 1224.56L2110.81 1225.46L2101.65 1229.85C2096.6 1232.27 2074.09 1242.28 2051.61 1252.1C2029.13 1261.92 2007.82 1271.23 2004.26 1272.79L1997.77 1275.64L1981.81 1268.75C1898.88 1232.98 1883.35 1226.33 1883.77 1225.06C1883.88 1224.73 1885.09 1224.76 1886.46 1224.74ZM1849.45 1300.87C1851.59 1292.52 1855.65 1286.21 1863.77 1278.62C1870.41 1272.41 1872.02 1271.91 1872.02 1276.07C1872.02 1279.97 1874.99 1286.88 1878.11 1290.23C1881.18 1293.52 1886.56 1296.32 1895.04 1299.06C1908.68 1303.46 1917.99 1310.29 1920.43 1317.69C1922.28 1323.28 1919.23 1332.99 1914.32 1337.14C1906.97 1343.35 1901.69 1344.84 1888.84 1344.32C1874.33 1343.75 1865.54 1340.22 1857.71 1331.85C1848.97 1322.51 1846.39 1312.82 1849.45 1300.87ZM2101.59 1298.9C2116.23 1293.92 2120.8 1289.47 2122.43 1278.63C2123.21 1273.36 2123.31 1273.25 2125.7 1274.92C2137.02 1282.85 2145.06 1295.79 2145.8 1307.3C2146.76 1322.07 2139.66 1333.09 2124.61 1340.17C2117.49 1343.52 2115.34 1343.96 2104.26 1344.36C2092.7 1344.77 2091.45 1344.59 2085.58 1341.72C2074.7 1336.39 2070.76 1326.76 2075.59 1317.29C2079.83 1308.98 2087.13 1303.82 2101.59 1298.9ZM1860.46 1424.77C1858.37 1409.74 1861.96 1391.01 1871.15 1369.01C1874.42 1361.17 1874.86 1360.66 1878.22 1360.68C1885.71 1360.71 1886.52 1361.43 1887.65 1369.07L1888.71 1376.16L1912.31 1386.06C1925.29 1391.51 1939.54 1397.66 1943.97 1399.73C1948.4 1401.81 1955.91 1405.05 1960.66 1406.94C1965.41 1408.83 1975.23 1412.96 1982.49 1416.12C1989.95 1419.36 1996.71 1421.62 1998.03 1421.31C1999.32 1421.01 2005.56 1418.69 2011.89 1416.16C2028.51 1409.53 2091.21 1384.16 2099.6 1380.69L2106.73 1377.73L2107.5 1371.55C2108.45 1363.93 2109.7 1362.28 2115.23 1361.31C2119.52 1360.56 2119.59 1360.6 2121.99 1366.07C2125.77 1374.72 2131.76 1394.91 2133.35 1404.4C2137.3 1427.98 2129.47 1451.23 2112.99 1464.83L2105.45 1471.05L2101.13 1468.19C2094.58 1463.86 2085.89 1460.93 2077.14 1460.12L2069.27 1459.39L2075.74 1446.58C2082.03 1434.14 2087.96 1418.51 2086.82 1417.37C2086.51 1417.06 2081.48 1420.82 2075.63 1425.72C2057.58 1440.87 2042.62 1449.5 2025.47 1454.64C2011.68 1458.78 1987.22 1459.11 1972.17 1455.35C1954.05 1450.83 1936.51 1440.95 1918.66 1425.19C1913.6 1420.73 1909.12 1417.08 1908.69 1417.08C1906.31 1417.08 1918.36 1447.41 1923.75 1454.98C1925.06 1456.81 1926.12 1458.55 1926.12 1458.85C1926.12 1459.14 1922.89 1459.75 1918.93 1460.2C1909.79 1461.23 1900.4 1464.51 1894.28 1468.8L1889.5 1472.15L1882.86 1466.78C1871.14 1457.3 1862.81 1441.68 1860.46 1424.77ZM1906.56 1483.86C1910.66 1481.77 1920.55 1479.69 1930.15 1478.9C1939.55 1478.13 1948 1478.39 1948 1479.44C1948 1481.71 1944.67 1483.61 1943.36 1486.72C1943.18 1487.13 1943.11 1487.37 1942.93 1487.78C1939.41 1496.17 1933.62 1500.11 1926.04 1503.82C1915.35 1509.05 1902.74 1509.37 1897.54 1504.53C1891.93 1499.3 1896.4 1489.04 1906.56 1483.86ZM2052.29 1478.75C2060.4 1479.64 2069.9 1479.2 2077.88 1480.86C2091 1483.6 2099.96 1491.31 2099.96 1499.85C2099.96 1509.77 2080.38 1510.71 2064.55 1501.56C2060.01 1498.93 2046.23 1478.08 2052.29 1478.75Z" fill="#400799" />
	</g>
	<defs>
		<clipPath id="clip0_8018_64005">
			<rect width="373" height="621" fill="white" transform="translate(1811 907)" />
		</clipPath>
	</defs>
</svg>
